<?xml version="1.0" encoding="UTF-8" standalone="no"?>
<!-- Created with Inkscape (http://www.inkscape.org/) -->

<svg
   xmlns:dc="http://purl.org/dc/elements/1.1/"
   xmlns:cc="http://creativecommons.org/ns#"
   xmlns:rdf="http://www.w3.org/1999/02/22-rdf-syntax-ns#"
   xmlns:svg="http://www.w3.org/2000/svg"
   xmlns="http://www.w3.org/2000/svg"
   xmlns:sodipodi="http://sodipodi.sourceforge.net/DTD/sodipodi-0.dtd"
   xmlns:inkscape="http://www.inkscape.org/namespaces/inkscape"
   width="270.25873"
   height="306.29337"
   id="svg2"
   version="1.1"
   inkscape:version="0.48.0 r9654"
   sodipodi:docname="btn_new.svg">
  <defs
     id="defs4" />
  <sodipodi:namedview
     id="base"
     pagecolor="#ffffff"
     bordercolor="#666666"
     borderopacity="1.0"
     inkscape:pageopacity="0.0"
     inkscape:pageshadow="2"
     inkscape:zoom="1.1643791"
     inkscape:cx="-9.4301083"
     inkscape:cy="158.57143"
     inkscape:document-units="px"
     inkscape:current-layer="layer1"
     showgrid="false"
     inkscape:window-width="1370"
     inkscape:window-height="836"
     inkscape:window-x="57"
     inkscape:window-y="24"
     inkscape:window-maximized="0"
     fit-margin-top="0"
     fit-margin-left="0"
     fit-margin-right="0"
     fit-margin-bottom="0" />
  <metadata
     id="metadata7">
    <rdf:RDF>
      <cc:Work
         rdf:about="">
        <dc:format>image/svg+xml</dc:format>
        <dc:type
           rdf:resource="http://purl.org/dc/dcmitype/StillImage" />
        <dc:title></dc:title>
      </cc:Work>
    </rdf:RDF>
  </metadata>
  <g
     inkscape:label="Layer 1"
     inkscape:groupmode="layer"
     id="layer1"
     transform="translate(-47.727482,-24.929288)">
    <path
       sodipodi:type="star"
       style="fill:#d3fc67;fill-opacity:1;stroke:#639907;stroke-width:20;stroke-linecap:butt;stroke-linejoin:bevel;stroke-miterlimit:4;stroke-opacity:1;stroke-dasharray:none"
       id="path2991"
       sodipodi:sides="6"
       sodipodi:cx="60"
       sodipodi:cy="175.21933"
       sodipodi:r1="144.47655"
       sodipodi:r2="125.12035"
       sodipodi:arg1="1.0471976"
       sodipodi:arg2="1.5707963"
       inkscape:flatsided="true"
       inkscape:rounded="0"
       inkscape:randomized="0"
       d="m 132.23827,300.33969 -144.47655,0 -72.238267,-125.12037 72.238279,-125.120354 144.476548,7e-6 72.23827,125.120367 z"
       transform="matrix(0.8660254,-0.5,0.5,0.8660254,43.285951,56.332082)" />
    <g
       transform="matrix(1.0051399,0,0,1.0209896,-3.6506492,-1.4059568)"
       style="font-size:64.73838043px;font-style:normal;font-weight:bold;text-align:center;line-height:125%;letter-spacing:0px;word-spacing:0px;text-anchor:middle;fill:#1c560a;fill-opacity:0.99576272;stroke:none;font-family:Sans;-inkscape-font-specification:Sans Bold"
       id="text2984">
      <path
         d="m 112.067,105.61879 13.59253,0 17.16452,32.36919 0,-32.36919 11.53785,0 0,47.19453 -13.59253,0 -17.16452,-32.36919 0,32.36919 -11.53785,0 0,-47.19453"
         style="fill:#1c560a;fill-opacity:0.99576272"
         id="path3778"
         inkscape:connector-curvature="0" />
      <path
         d="m 201.1455,135.01659 0,3.22428 -26.45802,0 c 0.27394,2.65529 1.23279,4.64676 2.87655,5.97439 1.64373,1.32765 3.94076,1.99147 6.8911,1.99146 2.3813,1e-5 4.81531,-0.34771 7.30204,-1.04315 2.50773,-0.71649 5.07872,-1.79125 7.71297,-3.22427 l 0,8.72451 c -2.6764,1.01154 -5.35275,1.77019 -8.02908,2.27596 -2.67639,0.52684 -5.35274,0.79026 -8.02908,0.79026 -6.40642,0 -11.39034,-1.62267 -14.95178,-4.86802 -3.54039,-3.26642 -5.31057,-7.8394 -5.31057,-13.71898 0,-5.77416 1.73857,-10.31554 5.21574,-13.62414 3.49822,-3.30853 8.30302,-4.96282 14.4144,-4.96285 5.56343,3e-5 10.00997,1.67539 13.33965,5.02607 3.35068,3.35075 5.02603,7.8289 5.02608,13.43448 m -11.63268,-3.76165 c -3e-5,-2.1495 -0.63224,-3.87754 -1.89663,-5.18413 -1.24338,-1.32762 -2.87659,-1.99144 -4.89964,-1.99146 -2.19168,2e-5 -3.97241,0.6217 -5.34218,1.86502 -1.3698,1.2223 -2.22329,2.99249 -2.56045,5.31057 l 14.6989,0"
         style="fill:#1c560a;fill-opacity:0.99576272"
         id="path3780"
         inkscape:connector-curvature="0" />
      <path
         d="m 206.51929,117.40952 11.00046,0 5.94279,24.40334 5.97439,-24.40334 9.45155,0 5.94278,24.15045 5.97439,-24.15045 11.00047,0 -9.32511,35.4038 -12.35972,0 -5.97439,-24.34011 -5.94278,24.34011 -12.35972,0 -9.32511,-35.4038"
         style="fill:#1c560a;fill-opacity:0.99576272"
         id="path3782"
         inkscape:connector-curvature="0" />
      <path
         d="m 129.32635,230.22753 c -3.03465,1.47516 -6.18517,2.58153 -9.45155,3.31911 -3.26646,0.73757 -6.63824,1.10636 -10.11537,1.10637 -7.86051,-1e-5 -14.087777,-2.19167 -18.681827,-6.575 -4.59407,-4.40439 -6.8911,-10.36824 -6.891097,-17.89156 -3e-6,-7.60757 2.339174,-13.59249 7.017539,-17.95479 4.678345,-4.3622 11.084745,-6.54333 19.219205,-6.54338 3.13995,5e-5 6.14295,0.29508 9.00901,0.8851 2.88705,0.59011 5.60555,1.46467 8.15551,2.62367 l 0,9.76766 c -2.63425,-1.4962 -5.25792,-2.6131 -7.87102,-3.35072 -2.5921,-0.73754 -5.1947,-1.10633 -7.8078,-1.10637 -4.84698,4e-5 -8.58755,1.35929 -11.22174,4.07776 -2.613158,2.69747 -3.919726,6.56449 -3.91971,11.60107 -1.6e-5,4.99448 1.264404,8.85096 3.79326,11.56946 2.52883,2.71851 6.12189,4.07776 10.7792,4.07776 1.26439,0 2.43398,-0.0738 3.50877,-0.22128 1.09579,-0.16858 2.07572,-0.42146 2.93978,-0.75865 l 0,-9.16706 -7.42848,0 0,-8.15552 18.96632,0 0,22.69637"
         style="fill:#1c560a;fill-opacity:0.99576272"
         id="path3784"
         inkscape:connector-curvature="0" />
      <path
         d="m 155.37343,217.80459 c -2.36027,1e-5 -4.14099,0.40041 -5.34218,1.2012 -1.18014,0.80081 -1.7702,1.98094 -1.77019,3.54038 -10e-6,1.43302 0.47415,2.56046 1.42248,3.38233 0.96937,0.8008 2.30755,1.2012 4.01454,1.2012 2.12842,0 3.91968,-0.75865 5.37379,-2.27596 1.45406,-1.53837 2.1811,-3.45607 2.18112,-5.75312 l 0,-1.29603 -5.87956,0 m 17.29097,-4.26742 0,20.19913 -11.41141,0 0,-5.24735 c -1.51733,2.14952 -3.22429,3.71951 -5.1209,4.70997 -1.89665,0.96939 -4.20422,1.45408 -6.92271,1.45409 -3.66683,-1e-5 -6.64876,-1.06423 -8.94578,-3.19267 -2.27596,-2.14951 -3.41394,-4.93124 -3.41394,-8.34518 0,-4.1515 1.42247,-7.19665 4.26742,-9.13545 2.86601,-1.93875 7.35471,-2.90814 13.46609,-2.90817 l 6.66982,0 0,-0.88509 c -2e-5,-1.79124 -0.70599,-3.09781 -2.1179,-3.91971 -1.41196,-0.84292 -3.61416,-1.26439 -6.6066,-1.26442 -2.42349,3e-5 -4.67838,0.24238 -6.76466,0.72704 -2.0863,0.48473 -4.02508,1.21177 -5.81634,2.18113 l 0,-8.62968 c 2.42347,-0.59002 4.85748,-1.03257 7.30204,-1.32764 2.44453,-0.31607 4.88908,-0.47412 7.33364,-0.47416 6.3853,4e-5 10.9899,1.26446 13.81381,3.79327 2.84491,2.5078 4.26738,6.59609 4.26742,12.26489"
         style="fill:#1c560a;fill-opacity:0.99576272"
         id="path3786"
         inkscape:connector-curvature="0" />
      <path
         d="m 216.06567,204.21206 c 1.43297,-2.19163 3.1294,-3.85645 5.0893,-4.99447 1.98088,-1.15901 4.15147,-1.73854 6.51177,-1.73858 4.06717,4e-5 7.165,1.25392 9.2935,3.76166 2.12838,2.5078 3.1926,6.15354 3.19266,10.93724 l 0,21.55839 -11.37979,0 0,-18.46055 c 0.021,-0.27394 0.0316,-0.55844 0.0316,-0.85349 0.021,-0.29501 0.0316,-0.71648 0.0316,-1.26442 -5e-5,-2.50775 -0.36884,-4.32008 -1.10637,-5.43701 -0.73763,-1.13795 -1.92829,-1.70694 -3.57199,-1.70697 -2.14956,3e-5 -3.81438,0.88512 -4.99447,2.65528 -1.15909,1.77022 -1.75969,4.33067 -1.8018,7.68136 l 0,17.3858 -11.37979,0 0,-18.46055 c -3e-5,-3.91969 -0.33721,-6.43799 -1.01154,-7.55492 -0.67438,-1.13795 -1.87558,-1.70694 -3.6036,-1.70697 -2.17061,3e-5 -3.84597,0.89566 -5.02607,2.68689 -1.18015,1.77022 -1.77021,4.30959 -1.77019,7.61814 l 0,17.41741 -11.3798,0 0,-35.4038 11.3798,0 0,5.18413 c 1.39084,-2.00197 2.9819,-3.50874 4.77319,-4.52031 1.81231,-1.0115 3.80377,-1.51727 5.97439,-1.51731 2.44452,4e-5 4.60457,0.5901 6.48016,1.77019 1.87552,1.18016 3.29799,2.83445 4.26742,4.96286"
         style="fill:#1c560a;fill-opacity:0.99576272"
         id="path3788"
         inkscape:connector-curvature="0" />
      <path
         d="m 286.11463,215.93957 0,3.22427 -26.45802,0 c 0.27394,2.6553 1.23279,4.64676 2.87656,5.97439 1.64372,1.32765 3.94075,1.99147 6.89109,1.99147 2.3813,0 4.81531,-0.34771 7.30204,-1.04315 2.50773,-0.7165 5.07872,-1.79125 7.71297,-3.22428 l 0,8.72451 c -2.6764,1.01154 -5.35275,1.77019 -8.02908,2.27596 -2.67639,0.52684 -5.35274,0.79026 -8.02908,0.79027 -6.40641,-1e-5 -11.39034,-1.62268 -14.95178,-4.86803 -3.54038,-3.26641 -5.31057,-7.8394 -5.31057,-13.71897 0,-5.77417 1.73858,-10.31554 5.21574,-13.62414 3.49822,-3.30854 8.30302,-4.96282 14.4144,-4.96286 5.56343,4e-5 10.00998,1.6754 13.33965,5.02608 3.35068,3.35074 5.02604,7.8289 5.02608,13.43448 m -11.63268,-3.76166 c -3e-5,-2.14949 -0.63224,-3.87753 -1.89663,-5.18413 -1.24338,-1.32761 -2.87659,-1.99143 -4.89964,-1.99146 -2.19168,3e-5 -3.97241,0.6217 -5.34218,1.86502 -1.3698,1.2223 -2.22329,2.99249 -2.56045,5.31057 l 14.6989,0"
         style="fill:#1c560a;fill-opacity:0.99576272"
         id="path3790"
         inkscape:connector-curvature="0" />
    </g>
  </g>
</svg>
