<?xml version="1.0" encoding="UTF-8" standalone="no"?>
<!-- Created with Inkscape (http://www.inkscape.org/) -->

<svg
   xmlns:dc="http://purl.org/dc/elements/1.1/"
   xmlns:cc="http://creativecommons.org/ns#"
   xmlns:rdf="http://www.w3.org/1999/02/22-rdf-syntax-ns#"
   xmlns:svg="http://www.w3.org/2000/svg"
   xmlns="http://www.w3.org/2000/svg"
   xmlns:sodipodi="http://sodipodi.sourceforge.net/DTD/sodipodi-0.dtd"
   xmlns:inkscape="http://www.inkscape.org/namespaces/inkscape"
   width="270.25873"
   height="306.29337"
   id="svg2"
   version="1.1"
   inkscape:version="0.48.0 r9654"
   sodipodi:docname="cheese.svg">
  <defs
     id="defs4">
    <style
       id="style6"
       type="text/css">
   
    .fil1 {fill:none}
    .fil2 {fill:#272320}
    .fil0 {fill:#FFF500}
   
  </style>
  </defs>
  <sodipodi:namedview
     id="base"
     pagecolor="#ffffff"
     bordercolor="#666666"
     borderopacity="1.0"
     inkscape:pageopacity="0.0"
     inkscape:pageshadow="2"
     inkscape:zoom="1.2634752"
     inkscape:cx="152.43404"
     inkscape:cy="164.28571"
     inkscape:document-units="px"
     inkscape:current-layer="layer1"
     showgrid="false"
     inkscape:window-width="951"
     inkscape:window-height="724"
     inkscape:window-x="121"
     inkscape:window-y="35"
     inkscape:window-maximized="0"
     fit-margin-top="0"
     fit-margin-left="0"
     fit-margin-right="0"
     fit-margin-bottom="0" />
  <metadata
     id="metadata7">
    <rdf:RDF>
      <cc:Work
         rdf:about="">
        <dc:format>image/svg+xml</dc:format>
        <dc:type
           rdf:resource="http://purl.org/dc/dcmitype/StillImage" />
        <dc:title />
      </cc:Work>
    </rdf:RDF>
  </metadata>
  <g
     inkscape:label="Layer 1"
     inkscape:groupmode="layer"
     id="layer1"
     transform="translate(-47.727482,-24.929288)">
    <path
       sodipodi:type="star"
       style="fill:#cafc67;fill-opacity:1;stroke:#639907;stroke-width:20;stroke-linecap:butt;stroke-linejoin:bevel;stroke-miterlimit:4;stroke-opacity:1;stroke-dasharray:none"
       id="path2991-9"
       sodipodi:sides="6"
       sodipodi:cx="60"
       sodipodi:cy="175.21933"
       sodipodi:r1="144.47655"
       sodipodi:r2="125.12035"
       sodipodi:arg1="1.0471976"
       sodipodi:arg2="1.5707963"
       inkscape:flatsided="true"
       inkscape:rounded="0"
       inkscape:randomized="0"
       d="m 132.23827,300.33969 -144.47655,0 -72.238267,-125.12037 72.238279,-125.120354 144.476548,7e-6 72.23827,125.120367 z"
       transform="matrix(0.8660254,-0.5,0.5,0.8660254,43.497296,56.724968)" />
    <path
       style="fill:#ffc30e;fill-opacity:1;stroke:#a78315;stroke-width:17.96627617;stroke-linecap:butt;stroke-linejoin:bevel;stroke-miterlimit:4;stroke-opacity:1"
       d="M 294.68066,244.78963 184.1234,310.76234 73.566133,244.78962 l 6e-6,-131.9454 L 184.1234,46.871523 294.68068,112.84423 z"
       id="path2991"
       inkscape:connector-curvature="0" />
    <g
       transform="matrix(1.3950626,0,0,1.3950626,44.65647,62.195012)"
       id="_37509840">
      <path
         id="_36634120"
         class="fil0"
         d="m 136.054,92.2274 c 6.2276,-1.1377 12.3578,-2.7581 18.3354,-4.8469 0.3055,-0.1175 0.6299,-0.1823 0.9575,-0.1904 0.2127,-0.0079 0.4225,0.0558 0.5975,0.1794 0.1839,0.1541 0.3071,0.37 0.3475,0.607 0.0613,0.3517 0.0652,0.7112 0.0125,1.0642 -0.0615,0.3949 -0.0895,0.7956 -0.0798,1.1961 0.0654,0.861 0.055,1.7256 -0.0317,2.5851 -0.0802,0.6956 -0.4316,1.3321 -0.9779,1.7705 -0.4008,0.2496 -0.851,0.4084 -1.3191,0.4657 -0.5338,0.0617 -1.0614,0.1623 -1.5806,0.303 -1.3022,0.4639 -2.6263,0.8615 -3.9689,1.1894 l -88.5708,19.0933 c -0.1076,0.007 -0.2173,0.0134 -0.3249,0.021 -0.5802,0.0665 -1.1642,0.0807 -1.7467,0.0422 -0.2327,-0.0174 -0.4522,-0.1082 -0.6294,-0.2607 -0.5248,-0.4561 -0.9575,-1.0105 -1.2722,-1.6306 -0.2323,-0.397 -0.3759,-0.8398 -0.4201,-1.2976 -0.0216,-0.2543 0.0936,-0.501 0.3028,-0.6481 0.2691,-0.1899 0.5663,-0.3331 0.8824,-0.4252 0.7316,-0.1944 1.471,-0.3583 2.2164,-0.4937 l 42.8589,-10.469 c 0.5765,-0.0554 1.1458,-0.1625 1.7031,-0.3197 1.278,-0.4381 2.5755,-0.8166 3.8898,-1.1338 8.1654,-1.5554 16.2561,-3.4884 24.2436,-5.7906 0.5489,-0.1593 1.1024,-0.2993 1.6594,-0.4223 0.9682,-0.2135 1.9399,-0.41 2.9153,-0.5883 z"
         inkscape:connector-curvature="0"
         style="fill:#fff500" />
      <path
         id="_37903144"
         class="fil1"
         d="m 138.128,81.782 c 1.3181,2.2332 3.6094,3.7168 6.1854,4.003 2.5771,0.287 5.1387,-0.654 6.915,-2.5418 0.3656,-0.3917 0.8956,-0.5845 1.4271,-0.5205 0.9479,0.1481 1.7951,0.6731 2.3506,1.4552 0.0723,0.1002 0.0785,0.2346 0.0151,0.3412 -0.0504,0.0819 -0.1156,0.1539 -0.1937,0.2103 -0.1576,0.1149 -0.3269,0.211 -0.5058,0.2895 -0.7422,0.2893 -1.5056,0.5225 -2.2843,0.6939 -14.8834,4.1293 -29.8792,7.8429 -44.9702,11.1382 -0.629,0.137 -1.2647,0.2483 -1.9035,0.3303 -0.8583,0.1115 -1.7097,0.2725 -2.5497,0.4825 l -31.5108,7.8614 c -0.6054,0.1515 -1.2013,0.3343 -1.7865,0.5478 -0.7799,0.2837 -1.5766,0.513 -2.3876,0.6853 l -13.5754,2.8928 c -0.472,0.1005 -0.9584,-0.095 -1.2293,-0.495 -0.2718,-0.3999 -0.273,-0.9243 -0.0054,-1.326 L 70.6425,80.0978 c 0.6152,-0.9221 1.2147,-1.8564 1.797,-2.8004 0.469,-0.7617 0.9206,-1.534 1.3548,-2.3172 5.0847,-9.323 10.6147,-18.3944 16.5674,-27.188 0.613,-1.0204 1.2634,-2.0176 1.9506,-2.989 l 0.0256,-0.0373 0.2406,-0.3809 c 0.2731,-0.4629 0.6081,-0.8872 0.9946,-1.2627 0.1,-0.0963 0.2198,-0.1687 0.3517,-0.2134 0.1028,-0.0391 0.2193,-0.0213 0.306,0.0446 0.621,0.4233 1.2885,0.7717 1.9905,1.0388 1.2188,0.409 2.3745,0.9897 3.4295,1.7255 0.2357,0.2125 0.4691,0.4309 0.6981,0.6513 0.4903,0.3764 1.0388,0.672 1.6227,0.8748 0.6785,0.2189 1.3264,0.527 1.9252,0.9145 0.4649,0.3117 0.7538,0.8269 0.7782,1.3867 0.004,0.5304 -0.0727,1.0589 -0.2271,1.5672 -0.2113,0.6333 -0.2823,1.3063 -0.2109,1.971 0.2711,1.8814 1.3626,3.5477 2.9799,4.5471 1.6167,1.0002 3.5943,1.2314 5.3988,0.633 0.1338,-0.0508 0.2626,-0.1126 0.3854,-0.1859 0.613,-0.4017 1.2351,-0.7883 1.8671,-1.1599 0.1094,-0.0635 0.2292,-0.1084 0.3545,-0.1315 l 0.0802,-9e-4 c 0.0433,0.0052 0.0796,0.0391 0.088,0.0822 0.0122,0.0516 0.0133,0.106 0.004,0.1576 -0.0198,0.1115 -0.0523,0.2216 -0.0956,0.3269 -0.3439,0.719 -0.7654,1.3991 -1.2574,2.0272 -0.2292,0.2808 -0.406,0.6001 -0.5215,0.9421 -0.2158,0.7351 -0.3862,1.4826 -0.5097,2.2381 -0.5467,2.4026 0.3345,4.9072 2.2657,6.4377 3.3087,2.5918 7.9992,2.4355 11.1269,-0.3713 0.1076,-0.1032 0.2012,-0.2189 0.2785,-0.346 0.228,-0.4202 0.448,-0.844 0.657,-1.2729 0.1465,-0.3016 0.3668,-0.5596 0.6417,-0.7517 0.3772,-0.232 0.8634,-0.18 1.1841,0.1251 0.1745,0.213 0.2836,0.4728 0.3146,0.7474 0.0626,0.5936 0.0643,1.1916 0.006,1.7848 -0.0392,0.3566 -0.046,0.7157 -0.021,1.0742 0.1738,1.4916 1.0907,2.7945 2.4353,3.4639 1.3451,0.6686 2.9369,0.6128 4.2314,-0.1478 l 1.2944,-0.8715 c 0.2802,-0.2002 0.5981,-0.3388 0.9354,-0.4102 0.2854,-0.061 0.5806,0.061 0.7417,0.3057 0.5017,0.7862 0.4636,1.8018 -0.0968,2.548 -0.2759,0.3214 -0.5693,0.6283 -0.8793,0.9177 -0.322,0.3073 -0.562,0.6914 -0.6963,1.1159 -0.4258,1.6523 -0.174,3.4074 0.6987,4.8741"
         inkscape:connector-curvature="0"
         style="fill:none" />
      <path
         id="_36641352"
         class="fil0"
         d="m 158.71,85.7698 c -0.0812,-0.6978 -0.2258,-1.3873 -0.4319,-2.059 -0.2271,-0.6076 -0.6278,-1.1326 -1.1514,-1.513 -0.2322,-0.1898 -0.474,-0.3705 -0.7214,-0.5403 l -4.4625,-3.1191 c -0.5385,-0.4089 -1.1462,-0.7179 -1.7944,-0.9099 -0.6714,-0.1824 -1.3843,0.0913 -1.7605,0.6761 -0.1502,0.2211 -0.2967,0.4451 -0.4388,0.6708 -0.7548,1.1592 -1.8916,2.0188 -3.2138,2.4272 -0.4786,0.151 -0.9977,0.0973 -1.4349,-0.1496 -0.5356,-0.3058 -1.0541,-0.6423 -1.5526,-1.0068 -0.3319,-0.2217 -0.6924,-0.3983 -1.0719,-0.5235 -0.5653,-0.1761 -0.9738,-0.6682 -1.0421,-1.2575 -0.1837,-1.1299 0.2685,-2.2692 1.1789,-2.9647 0.4656,-0.347 0.9099,-0.7225 1.3313,-1.1223 0.4752,-0.4382 0.7067,-1.0808 0.6215,-1.7218 -0.1244,-0.6382 -0.4925,-1.2016 -1.027,-1.57 -0.5277,-0.3751 -1.0701,-0.7283 -1.6254,-1.0592 -0.2378,-0.1505 -0.456,-0.3289 -0.65,-0.532 -0.6841,-0.6815 -1.5267,-1.1833 -2.4503,-1.4612 -0.2294,-0.0675 -0.4698,-0.0833 -0.7051,-0.0429 -0.1386,0.0279 -0.264,0.1049 -0.3511,0.2181 -0.4573,0.6371 -1.0198,1.1926 -1.6645,1.6398 -0.2411,0.1632 -0.517,0.2697 -0.8048,0.3122 -0.3464,0.0384 -0.6845,-0.1182 -0.877,-0.4087 -0.2687,-0.3465 -0.3614,-0.7976 -0.2514,-1.2227 0.1073,-0.4116 0.2547,-0.8128 0.4404,-1.1959 0.1052,-0.2267 0.1847,-0.4654 0.2341,-0.7102 0.0459,-0.199 0.004,-0.4075 -0.1155,-0.5736 l -0.1135,-0.1168 c -1.1503,-1.0744 -2.3814,-2.061 -3.681,-2.9493 -0.151,-0.0889 -0.3051,-0.1728 -0.4631,-0.2513 -0.2623,-0.1512 -0.481,-0.366 -0.6374,-0.6254 -0.1656,-0.2663 -0.3365,-0.5277 -0.5125,-0.7871 -0.1307,-0.191 -0.3078,-0.3447 -0.5152,-0.4478 -0.1308,-0.054 -0.2736,-0.0749 -0.4149,-0.0587 -0.9801,0.1092 -1.87,0.6248 -2.4517,1.4196 -0.5826,0.7972 -1.1215,1.6261 -1.6154,2.4809 -0.6278,0.9615 -1.6422,1.6057 -2.7807,1.7623 -1.1385,0.1577 -2.2895,-0.186 -3.1552,-0.9417 -1.0282,-0.836 -1.4733,-2.1949 -1.136,-3.4766 0.4546,-1.7379 1.3528,-3.3286 2.6084,-4.6141 0.348,-0.357 0.5833,-0.8089 0.6727,-1.2993 0.0362,-0.3025 -0.0647,-0.6047 -0.2767,-0.8242 -0.2668,-0.2734 -0.5693,-0.509 -0.8992,-0.6992 -0.268,-0.161 -0.5128,-0.3587 -0.7252,-0.5872 l -0.2626,-0.3585 c -0.6872,-0.8236 -1.7347,-1.2568 -2.8026,-1.1575 -0.2687,0.0416 -0.5137,0.1778 -0.691,0.3844 -0.216,0.254 -0.4143,0.5249 -0.5912,0.8077 -0.1815,0.2823 -0.4318,0.5143 -0.7283,0.6721 -0.8735,0.3966 -1.8832,0.3669 -2.7309,-0.0821 -0.8485,-0.4496 -1.4413,-1.266 -1.6048,-2.2119 -0.0995,-0.5711 -0.0133,-1.1575 0.246,-1.6743 0.2156,-0.4579 0.3756,-0.9389 0.4769,-1.4346 0.1102,-0.5646 -0.0998,-1.143 -0.546,-1.5055 -0.4399,-0.3526 -0.9236,-0.6469 -1.4374,-0.8767 -4.2789,-2.2008 -8.1839,-5.0579 -11.5751,-8.4703 -3.1971,3.2528 -5.9924,6.8786 -8.3245,10.7995 L 66.5733,82.0742 c -0.4443,0.7473 -0.9397,1.4643 -1.4831,2.1424 -0.3645,0.4531 -0.7071,0.9247 -1.0263,1.4106 l -15.5344,23.6197 9.5285,9.349 100.202,-22.6975 c 0.8258,-3.3121 0.9788,-6.7561 0.45,-10.1284"
         inkscape:connector-curvature="0"
         style="fill:#fff500" />
      <g
         id="g14">
        <path
           id="_36378936"
           class="fil2"
           d="m 97.0078,61.2129 c -0.5932,-0.4967 -1.2465,-0.919 -1.9431,-1.2556 -0.6619,-0.3195 -1.3624,-0.5507 -2.0836,-0.689 -1.4305,-0.2739 -2.9104,0.0124 -4.1364,0.7976 -1.2263,0.7847 -2.1049,2.0096 -2.454,3.424 -0.154,0.6207 -0.2707,1.2497 -0.3496,1.884 -0.0506,0.4112 -0.0639,0.8245 -0.0383,1.2376 0.1266,2.0626 1.5558,3.8136 3.5509,4.3527 0.7639,0.1705 1.5455,0.2487 2.3272,0.233 0.8077,-0.0074 1.6077,0.1597 2.3472,0.4858 0.6681,0.314 1.4536,0.2457 2.0585,-0.178 0.7279,-0.5029 1.3483,-1.1449 1.8253,-1.8885 0.9024,-1.2843 1.2891,-2.8604 1.0849,-4.4163 -0.205,-1.5565 -0.9855,-2.9792 -2.189,-3.9873 m -6.9295,7.5068 c -0.6541,-0.2211 -1.1923,-0.6972 -1.4915,-1.3201 -0.2992,-0.6235 -0.3349,-1.3405 -0.099,-1.9898 0.2356,-0.6495 0.7238,-1.1766 1.3529,-1.462 0.6288,-0.2857 1.346,-0.306 1.9905,-0.057 0.3372,0.1247 0.6774,0.2389 1.0211,0.3447 0.5811,0.1922 1.1554,0.4117 1.7171,0.6558 0.509,0.2304 0.9324,0.6169 1.2107,1.1012 0.3638,0.8408 0.3134,1.8032 -0.1368,2.6015 -0.1883,0.3273 -0.5163,0.5522 -0.8903,0.6089 -1.5749,0.1836 -3.1705,0.0191 -4.6747,-0.4832 z"
           inkscape:connector-curvature="0"
           style="fill:#272320" />
        <path
           id="_36377336"
           class="fil2"
           d="m 76.4102,91.7109 c -1.647,-1.1376 -3.7515,-1.3821 -5.6176,-0.654 -0.6044,0.2871 -1.1361,0.7081 -1.5562,1.229 -1.7027,2.0743 -1.8242,5.0268 -0.2988,7.2362 0.0822,0.1051 0.1724,0.2044 0.2691,0.2954 0.6458,0.7374 1.4805,1.2866 2.4142,1.588 l 2.7145,0.8802 c 0.6802,0.1995 1.4074,0.1693 2.0678,-0.0857 1.0598,-0.3235 2.0013,-0.9519 2.7059,-1.8078 0.1612,-0.2138 0.286,-0.4539 0.3665,-0.7098 0.8762,-3.0439 -0.3758,-6.2986 -3.0654,-7.9715 m -2.9349,7.8926 C 72.9072,99.2046 72.346,98.7928 71.7937,98.3705 71.6035,98.2445 71.4086,98.1281 71.21,98.0186 71.0929,97.9546 70.9855,97.8773 70.8871,97.7864 70.8015,97.7087 70.728,97.6203 70.6665,97.5221 70.5216,97.2895 70.4153,97.0348 70.3531,96.7674 70.3054,96.5657 70.304,96.356 70.3458,96.1533 c 0.0306,-0.1808 0.0653,-0.361 0.1059,-0.5399 0.0253,-0.0806 0.0649,-0.1548 0.1166,-0.221 0.0348,-0.0506 0.0734,-0.0969 0.1151,-0.141 0.0232,-0.0238 0.0499,-0.044 0.0789,-0.0598 l 0.4199,-0.1051 c 0.8673,-0.1204 1.748,0.1072 2.4506,0.6289 l 1.0865,0.7463 c 0.0837,0.0502 0.1631,0.1071 0.2375,0.1688 0.0459,0.0387 0.0855,0.0831 0.1198,0.1333 0.1682,0.2591 0.3312,0.5235 0.4864,0.7923 l 0.2047,0.3108 c 0.1014,0.2422 0.1127,0.5141 0.0334,0.7643 -0.1895,0.5626 -0.638,1.0002 -1.2062,1.1747 -0.3848,0.0919 -0.791,0.0189 -1.1196,-0.2024 z"
           inkscape:connector-curvature="0"
           style="fill:#272320" />
        <path
           id="_36382024"
           class="fil2"
           d="m 89.8515,87.7059 c 0.0465,0.0187 0.0948,0.0292 0.1444,0.0333 0.5341,0.0266 1.0663,0.0817 1.5936,0.1635 0.5457,0.0806 1.1013,-0.036 1.5682,-0.3308 0.0307,-0.0205 0.0597,-0.0441 0.0841,-0.0713 0.0268,-0.0283 0.051,-0.0612 0.0709,-0.0955 l 0.0344,-0.0852 c 0.1956,-0.4332 0.3744,-0.8732 0.5355,-1.3205 0.1965,-0.5041 0.2393,-1.0547 0.1224,-1.5823 -0.03,-0.1137 -0.0819,-0.2189 -0.1523,-0.3123 -0.1525,-0.1975 -0.3214,-0.3815 -0.5066,-0.5479 -0.1696,-0.1707 -0.3518,-0.3295 -0.5451,-0.4741 -0.1826,-0.1329 -0.4029,-0.205 -0.6299,-0.2043 l -0.3395,0.0405 c -0.613,0.059 -1.2213,0.167 -1.8177,0.3229 l -0.3638,0.1027 c -0.2133,0.1042 -0.389,0.2731 -0.5033,0.4824 l -0.1193,0.3492 c -0.1184,0.3428 -0.2218,0.6909 -0.3097,1.0428 -0.018,0.1308 -0.0179,0.2637 -5e-4,0.3948 l 0.0295,0.1679 c 0.2627,0.6296 0.5833,1.2319 0.959,1.8006 l 0.0431,0.0606 c 0.0296,0.0273 0.0641,0.0491 0.1026,0.063 z"
           inkscape:connector-curvature="0"
           style="fill:#272320" />
        <path
           id="_37111328"
           class="fil2"
           d="m 99.612,93.8136 c 0.1772,-0.2602 0.3475,-0.5257 0.5094,-0.7955 0.1531,-0.2594 0.2508,-0.5461 0.2888,-0.8443 0.0281,-0.2267 -0.005,-0.4557 -0.0986,-0.6629 -0.0321,-0.0713 -0.0687,-0.1391 -0.1089,-0.2044 -0.1017,-0.1653 -0.2064,-0.328 -0.317,-0.4866 -0.1059,-0.1553 -0.2393,-0.291 -0.3914,-0.4014 -0.1476,-0.1073 -0.3142,-0.1874 -0.4898,-0.2366 -0.6058,-0.1518 -1.2216,-0.2617 -1.8422,-0.3287 -0.1444,-0.0149 -0.2909,-8e-4 -0.4291,0.0407 -0.1189,0.0357 -0.2273,0.0984 -0.3183,0.183 -0.2961,0.296 -0.5371,0.6437 -0.7109,1.0254 -0.2015,0.5187 -0.2265,1.0898 -0.0701,1.6242 0.0429,0.1957 0.0933,0.3914 0.1503,0.5831 0.0194,0.0632 0.0457,0.1243 0.078,0.1813 0.0959,0.1691 0.2183,0.321 0.3633,0.4495 0.2372,0.2109 0.495,0.3977 0.7694,0.5574 0.3903,0.2181 0.8502,0.2764 1.2814,0.1612 0.2609,-0.0573 0.5151,-0.1382 0.7614,-0.2414 0.1075,-0.0452 0.2044,-0.1128 0.2834,-0.1986 l 0.2909,-0.4054 z"
           inkscape:connector-curvature="0"
           style="fill:#272320" />
        <path
           id="_37244888"
           class="fil2"
           d="m 115.852,75.9627 c -0.9158,-0.2917 -1.868,-0.4556 -2.8277,-0.488 -0.737,-0.0248 -1.4731,0.0838 -2.1723,0.3199 -2.1201,0.7155 -3.6539,2.5668 -3.9641,4.7823 -0.3097,2.2154 0.6573,4.4168 2.4995,5.6862 2.4675,1.8896 5.8941,1.8918 8.3638,0.005 0.5578,-0.491 1.0299,-1.0708 1.3977,-1.7167 0.905,-1.5437 1.0587,-3.4163 0.4166,-5.0868 -0.6406,-1.671 -2.0077,-2.9601 -3.7136,-3.5016 m -3.5855,9.177 c -0.4377,-0.062 -0.8431,-0.2687 -1.149,-0.587 -0.6922,-0.7052 -1.3123,-1.4761 -1.853,-2.3036 -0.1256,-0.1984 -0.1525,-0.4435 -0.0722,-0.6636 l 0.5632,-1.4316 0.1477,-0.2988 c 0.1366,-0.1589 0.3358,-0.2479 0.5448,-0.2443 l 0.3884,0.0468 c 0.7254,0.0993 1.4325,0.3097 2.0956,0.6213 0.8002,0.3975 1.5243,0.9346 2.1367,1.5857 0.15,0.1414 0.2713,0.3106 0.3565,0.4973 0.083,0.182 0.1286,0.3783 0.134,0.5784 0.0237,0.5013 -0.0694,1.0015 -0.2717,1.4617 -0.0532,0.1133 -0.1302,0.2142 -0.2266,0.2951 -0.1716,0.1427 -0.3591,0.2634 -0.5587,0.3592 l -0.3376,0.1511 c -0.2383,0.0782 -0.4903,0.1089 -0.7413,0.0885 -0.3889,-0.0229 -0.7752,-0.0749 -1.1568,-0.1562 z"
           inkscape:connector-curvature="0"
           style="fill:#272320" />
        <path
           id="_37112224"
           class="fil2"
           d="m 131.846,83.1844 0.0556,-0.3549 c -5e-4,-0.2352 -0.0715,-0.4658 -0.2046,-0.6592 -0.4717,-0.6039 -1.1193,-1.0462 -1.8534,-1.2651 -0.3919,-0.1378 -0.8041,-0.2083 -1.2183,-0.2085 -0.5046,-0.0217 -0.998,0.1551 -1.3734,0.4929 -0.3754,0.3378 -0.6028,0.8094 -0.6337,1.313 -0.0652,0.6462 0.0301,1.3002 0.2788,1.9005 0.3391,0.7022 1.0337,1.1646 1.8117,1.2082 0.2674,0.0165 0.5354,0.0225 0.802,0.0165 0.1295,-0.0037 0.2584,-0.0258 0.3817,-0.0655 0.1308,-0.0416 0.2549,-0.0999 0.3702,-0.1743 0.2248,-0.142 0.4375,-0.3027 0.6356,-0.4794 0.5216,-0.4352 0.8611,-1.0507 0.9478,-1.7242 z"
           inkscape:connector-curvature="0"
           style="fill:#272320" />
        <path
           id="_37112088"
           class="fil2"
           d="m 158.671,85.7819 c -0.0812,-0.6978 -0.2258,-1.3873 -0.4319,-2.059 -0.2271,-0.6076 -0.6278,-1.1326 -1.1514,-1.513 -0.2322,-0.1898 -0.474,-0.3705 -0.7214,-0.5403 l -4.4625,-3.1191 c -0.5385,-0.4089 -1.1462,-0.7179 -1.7944,-0.9099 -0.6714,-0.1824 -1.3843,0.0913 -1.7605,0.6761 -0.1502,0.2211 -0.2967,0.4451 -0.4388,0.6708 -0.7548,1.1592 -1.8916,2.0188 -3.2138,2.4272 -0.4786,0.151 -0.9977,0.0973 -1.4349,-0.1496 -0.5356,-0.3058 -1.0541,-0.6423 -1.5526,-1.0068 -0.3319,-0.2217 -0.6924,-0.3983 -1.0719,-0.5235 -0.5653,-0.1761 -0.9738,-0.6682 -1.0421,-1.2575 -0.1837,-1.1299 0.2685,-2.2692 1.1789,-2.9647 0.4656,-0.347 0.9099,-0.7225 1.3313,-1.1223 0.4752,-0.4382 0.7067,-1.0808 0.6215,-1.7218 -0.1244,-0.6382 -0.4925,-1.2016 -1.027,-1.57 -0.5277,-0.3751 -1.0701,-0.7283 -1.6254,-1.0592 -0.2378,-0.1505 -0.456,-0.3289 -0.65,-0.532 -0.6841,-0.6815 -1.5267,-1.1833 -2.4503,-1.4612 -0.2294,-0.0675 -0.4698,-0.0833 -0.7051,-0.0429 -0.1386,0.0279 -0.264,0.1049 -0.3511,0.2181 -0.4573,0.6371 -1.0198,1.1926 -1.6645,1.6398 -0.2411,0.1632 -0.517,0.2697 -0.8048,0.3122 -0.3464,0.0384 -0.6845,-0.1182 -0.877,-0.4087 -0.2687,-0.3465 -0.3614,-0.7976 -0.2514,-1.2227 0.1073,-0.4116 0.2547,-0.8128 0.4404,-1.1959 0.1052,-0.2267 0.1847,-0.4654 0.2341,-0.7102 0.0459,-0.199 0.004,-0.4075 -0.1155,-0.5736 l -0.1135,-0.1168 c -1.1503,-1.0744 -2.3814,-2.061 -3.681,-2.9493 -0.151,-0.0889 -0.3051,-0.1728 -0.4631,-0.2513 -0.2623,-0.1512 -0.481,-0.366 -0.6374,-0.6254 -0.1656,-0.2663 -0.3365,-0.5277 -0.5125,-0.7871 -0.1307,-0.191 -0.3078,-0.3447 -0.5152,-0.4478 -0.1308,-0.054 -0.2736,-0.0749 -0.4149,-0.0587 -0.9801,0.1092 -1.87,0.6248 -2.4517,1.4196 -0.5826,0.7972 -1.1215,1.6261 -1.6154,2.4809 -0.6278,0.9615 -1.6422,1.6057 -2.7807,1.7623 -1.1385,0.1577 -2.2895,-0.186 -3.1552,-0.9417 -1.0282,-0.836 -1.4733,-2.1949 -1.136,-3.4766 0.4546,-1.7379 1.3528,-3.3286 2.6084,-4.6141 0.348,-0.357 0.5833,-0.8089 0.6727,-1.2993 0.0362,-0.3025 -0.0647,-0.6047 -0.2767,-0.8242 -0.2668,-0.2734 -0.5693,-0.509 -0.8992,-0.6992 -0.268,-0.161 -0.5128,-0.3587 -0.7252,-0.5872 l -0.2626,-0.3585 c -0.6872,-0.8236 -1.7347,-1.2568 -2.8026,-1.1575 -0.2687,0.0416 -0.5137,0.1778 -0.691,0.3844 -0.216,0.254 -0.4143,0.5249 -0.5912,0.8077 -0.1815,0.2823 -0.4318,0.5143 -0.7283,0.6721 -0.8735,0.3966 -1.8832,0.3669 -2.7309,-0.0821 -0.8485,-0.4496 -1.4413,-1.266 -1.6048,-2.2119 -0.0995,-0.5711 -0.0133,-1.1575 0.246,-1.6743 0.2156,-0.4579 0.3756,-0.9389 0.4769,-1.4346 0.1102,-0.5646 -0.0998,-1.143 -0.546,-1.5055 -0.4399,-0.3526 -0.9236,-0.6469 -1.4374,-0.8767 -4.2789,-2.2008 -8.1839,-5.0579 -11.5751,-8.4703 -3.1971,3.2528 -5.9924,6.8786 -8.3245,10.7995 L 66.5343,82.0863 c -0.4443,0.7473 -0.9397,1.4643 -1.4831,2.1424 -0.3645,0.4531 -0.7071,0.9247 -1.0263,1.4106 l -15.5344,23.6197 9.5285,9.349 100.202,-22.6975 c 0.8258,-3.3121 0.9788,-6.7561 0.45,-10.1284 m -20.5437,-4.4608 c 1.3181,2.2332 3.6094,3.7168 6.1854,4.003 2.5771,0.287 5.1387,-0.654 6.915,-2.5418 0.3656,-0.3917 0.8956,-0.5845 1.4271,-0.5205 0.9479,0.1481 1.7951,0.6731 2.3506,1.4552 0.0723,0.1002 0.0785,0.2346 0.0151,0.3412 -0.0504,0.0819 -0.1156,0.1539 -0.1937,0.2103 -0.1576,0.1149 -0.3269,0.211 -0.5058,0.2895 -0.7422,0.2893 -1.5056,0.5225 -2.2843,0.6939 -14.8834,4.1293 -29.8792,7.8429 -44.9702,11.1382 -0.629,0.137 -1.2647,0.2483 -1.9035,0.3303 -0.8583,0.1115 -1.7097,0.2725 -2.5497,0.4825 l -31.5108,7.8614 c -0.6054,0.1515 -1.2013,0.3343 -1.7865,0.5478 -0.7799,0.2837 -1.5766,0.513 -2.3876,0.6853 l -13.5754,2.8928 c -0.472,0.1005 -0.9584,-0.095 -1.2293,-0.495 -0.2718,-0.3999 -0.273,-0.9243 -0.0054,-1.326 L 70.6418,79.6371 c 0.6152,-0.9221 1.2147,-1.8564 1.797,-2.8004 0.469,-0.7617 0.9206,-1.534 1.3548,-2.3172 5.0847,-9.323 10.6147,-18.3944 16.5674,-27.188 0.613,-1.0204 1.2634,-2.0176 1.9506,-2.989 l 0.0256,-0.0373 0.2406,-0.3809 c 0.2731,-0.4629 0.6081,-0.8872 0.9946,-1.2627 0.1,-0.0963 0.2198,-0.1687 0.3517,-0.2134 0.1028,-0.0391 0.2193,-0.0213 0.306,0.0446 0.621,0.4233 1.2885,0.7717 1.9905,1.0388 1.2188,0.409 2.3745,0.9897 3.4295,1.7255 0.2357,0.2125 0.4691,0.4309 0.6981,0.6513 0.4903,0.3764 1.0388,0.672 1.6227,0.8748 0.6785,0.2189 1.3264,0.527 1.9252,0.9145 0.4649,0.3117 0.7538,0.8269 0.7782,1.3867 0.004,0.5304 -0.0727,1.0589 -0.2271,1.5672 -0.2113,0.6333 -0.2823,1.3063 -0.2109,1.971 0.2711,1.8814 1.3626,3.5477 2.9799,4.5471 1.6167,1.0002 3.5943,1.2314 5.3988,0.633 0.1338,-0.0508 0.2626,-0.1126 0.3854,-0.1859 0.613,-0.4017 1.2351,-0.7883 1.8671,-1.1599 0.1094,-0.0635 0.2292,-0.1084 0.3545,-0.1315 l 0.0802,-9e-4 c 0.0433,0.0052 0.0796,0.0391 0.088,0.0822 0.0122,0.0516 0.0133,0.106 0.004,0.1576 -0.0198,0.1115 -0.0523,0.2216 -0.0956,0.3269 -0.3439,0.719 -0.7654,1.3991 -1.2574,2.0272 -0.2292,0.2808 -0.406,0.6001 -0.5215,0.9421 -0.2158,0.7351 -0.3862,1.4826 -0.5097,2.2381 -0.5467,2.4026 0.3345,4.9072 2.2657,6.4377 3.3087,2.5918 7.9992,2.4355 11.1269,-0.3713 0.1076,-0.1032 0.2012,-0.2189 0.2785,-0.346 0.228,-0.4202 0.448,-0.844 0.657,-1.2729 0.1465,-0.3016 0.3668,-0.5596 0.6417,-0.7517 0.3772,-0.232 0.8634,-0.18 1.1841,0.1251 0.1745,0.213 0.2836,0.4728 0.3146,0.7474 0.0626,0.5936 0.0643,1.1916 0.006,1.7848 -0.0392,0.3566 -0.046,0.7157 -0.021,1.0742 0.1738,1.4916 1.0907,2.7945 2.4353,3.4639 1.3451,0.6686 2.9369,0.6128 4.2314,-0.1478 l 1.2944,-0.8715 c 0.2802,-0.2002 0.5981,-0.3388 0.9354,-0.4102 0.2854,-0.061 0.5806,0.061 0.7417,0.3057 0.5017,0.7862 0.4636,1.8018 -0.0968,2.548 -0.2759,0.3214 -0.5693,0.6283 -0.8793,0.9177 -0.322,0.3073 -0.562,0.6914 -0.6963,1.1159 -0.4258,1.6523 -0.174,3.4074 0.6987,4.8741 m -2.074,10.445 c 6.2276,-1.1377 12.3578,-2.7581 18.3354,-4.8469 0.3055,-0.1175 0.6299,-0.1823 0.9575,-0.1904 0.2127,-0.0079 0.4225,0.0558 0.5975,0.1794 0.1839,0.1541 0.3071,0.37 0.3475,0.607 0.0613,0.3517 0.0652,0.7112 0.0125,1.0642 -0.0615,0.3949 -0.0895,0.7956 -0.0798,1.1961 0.0654,0.861 0.055,1.7256 -0.0317,2.5851 -0.0802,0.6956 -0.4316,1.3321 -0.9779,1.7705 -0.4008,0.2496 -0.851,0.4084 -1.3191,0.4657 -0.5338,0.0617 -1.0614,0.1623 -1.5806,0.303 -1.3022,0.4639 -2.6263,0.8615 -3.9689,1.1894 L 59.775,115.1831 c -0.1076,0.007 -0.2173,0.0134 -0.3249,0.021 -0.5802,0.0665 -1.1642,0.0807 -1.7467,0.0422 -0.2327,-0.0174 -0.4522,-0.1082 -0.6294,-0.2607 -0.5248,-0.4561 -0.9575,-1.0105 -1.2722,-1.6306 -0.2323,-0.397 -0.3759,-0.8398 -0.4201,-1.2976 -0.0216,-0.2543 0.0936,-0.501 0.3028,-0.6481 0.2691,-0.1899 0.5663,-0.3331 0.8824,-0.4252 0.7316,-0.1944 1.471,-0.3583 2.2164,-0.4937 l 42.8589,-10.469 c 0.5765,-0.0554 1.1458,-0.1625 1.7031,-0.3197 1.278,-0.4381 2.5755,-0.8166 3.8898,-1.1338 8.1654,-1.5554 16.2561,-3.4884 24.2436,-5.7906 0.5489,-0.1593 1.1024,-0.2993 1.6594,-0.4223 0.9682,-0.2135 1.9399,-0.41 2.9153,-0.5883 z"
           inkscape:connector-curvature="0"
           style="fill:#272320" />
      </g>
    </g>
  </g>
</svg>
